<svg width="140" height="36" viewBox="0 0 140 36" fill="none" xmlns="http://www.w3.org/2000/svg">
  <g clip-path="url(#clip0_840_4000)">
    <g style="mix-blend-mode:multiply">
      <path
        d="M19.7255 9.96057H19.6571V17.3829C19.6571 18.096 19.3799 18.7798 18.8864 19.284C18.393 19.7882 17.7237 20.0715 17.0259 20.0715H9.90552C9.91971 22.0537 10.508 23.9872 11.5961 25.6282C12.6843 27.2693 14.2236 28.5444 16.02 29.2927C17.8164 30.0411 19.7894 30.2292 21.6903 29.8334C23.5912 29.4375 25.3348 28.4755 26.7013 27.0685C28.0678 25.6615 28.996 23.8726 29.3689 21.9273C29.7418 19.982 29.5426 17.9675 28.7965 16.1377C28.0504 14.3079 26.7908 12.7448 25.1765 11.6455C23.5622 10.5462 21.6655 9.95993 19.7255 9.96057Z"
        fill="#8366FF" />
    </g>
    <g style="mix-blend-mode:multiply">
      <path
        d="M19.6571 9.96057V5.96795C19.6571 4.38516 19.0417 2.86718 17.9464 1.74798C16.851 0.628767 15.3654 0 13.8164 0H5.84067C4.29162 0 2.80603 0.628767 1.71069 1.74798C0.615354 2.86718 0 4.38516 0 5.96795V14.114C-1.31741e-07 14.8976 0.151098 15.6735 0.444661 16.3973C0.738224 17.1212 1.1685 17.7789 1.7109 18.3328C2.2533 18.8867 2.8972 19.3259 3.6058 19.6255C4.3144 19.925 5.07382 20.0789 5.84067 20.0785H9.90552C9.90552 20.054 9.90552 20.0295 9.90552 20.0016C9.90365 17.3512 10.9281 14.8078 12.7551 12.9266C14.5821 11.0453 17.0633 9.97904 19.6571 9.96057Z"
        fill="#06CBF7" />
    </g>
    <path
      d="M19.6571 17.3899V9.96057C17.0651 9.97995 14.5858 11.0456 12.7597 12.9253C10.9336 14.8049 9.90887 17.3461 9.90894 19.9946C9.90894 20.0225 9.90894 20.047 9.90894 20.0715H17.019C17.3645 20.0724 17.7069 20.0038 18.0265 19.8695C18.346 19.7352 18.6366 19.538 18.8816 19.289C19.1265 19.04 19.3211 18.7441 19.4542 18.4183C19.5872 18.0924 19.6562 17.743 19.6571 17.3899Z"
      fill="#43434F" />
    <path
      d="M45.3191 24.5815V6.00642C45.3191 4.25834 46.5372 2.97525 48.094 2.97525C49.4798 2.97525 50.2565 3.53813 51.1016 4.91562L57.021 14.607L62.8377 4.91562C63.6486 3.57659 64.4937 2.97525 65.6434 2.97525C66.0282 2.97697 66.4087 3.05725 66.7628 3.21137C67.1168 3.36549 67.437 3.59035 67.7048 3.87274C67.9726 4.15512 68.1824 4.48934 68.3219 4.85576C68.4615 5.22217 68.528 5.61338 68.5175 6.00642V24.5815C68.5355 24.9373 68.4825 25.293 68.3616 25.6271C68.2408 25.9613 68.0547 26.2668 67.8146 26.5251C67.5745 26.7833 67.2855 26.989 66.9652 27.1296C66.6449 27.2701 66.2999 27.3426 65.9513 27.3426C65.6027 27.3426 65.2577 27.2701 64.9374 27.1296C64.6171 26.989 64.3281 26.7833 64.088 26.5251C63.848 26.2668 63.6619 25.9613 63.541 25.6271C63.4202 25.293 63.3671 24.9373 63.3851 24.5815V12.8449L59.5187 18.9422C58.742 20.1414 57.8627 20.6693 56.8465 20.6693C55.9021 20.6693 55.0227 20.1764 54.2426 18.9422L50.4241 13.0197V24.5815C50.44 24.9349 50.385 25.2879 50.2627 25.6188C50.1403 25.9497 49.9531 26.2515 49.7125 26.5059C49.4719 26.7602 49.183 26.9617 48.8635 27.0979C48.544 27.2341 48.2007 27.3022 47.8545 27.2981C46.4003 27.2981 45.3191 26.1688 45.3191 24.5815Z"
      fill="black" />
    <path
      d="M71.484 19.0821C71.484 14.1874 75.2033 10.8346 79.7335 10.8346C84.2637 10.8346 87.9829 14.1839 87.9829 19.0821C87.9829 23.9802 84.2979 27.4729 79.7335 27.4729C75.1691 27.4729 71.484 24.0187 71.484 19.0821ZM79.7335 23.0327C81.3553 23.0327 82.9121 21.6587 82.9121 19.0821C82.9121 16.5054 81.3553 15.2783 79.7335 15.2783C78.1116 15.2783 76.5548 16.5474 76.5548 19.0821C76.5548 21.6168 78.1082 23.0327 79.7335 23.0327Z"
      fill="black" />
    <path
      d="M91.2266 33.4653C91.2212 33.038 91.3137 32.6153 91.4969 32.2311L94.4702 26.4135L89.3994 14.7818C89.2179 14.3983 89.1254 13.9771 89.1291 13.5511C89.1345 12.8766 89.4003 12.2316 89.8687 11.7563C90.3371 11.281 90.9702 11.0138 91.6303 11.0129C92.5097 11.0129 93.4575 11.4709 94.0254 12.74C94.939 14.9251 96.359 18.7324 97.2383 21.3056C98.0835 18.5891 99.6026 15.1349 100.66 12.74C101.235 11.4709 102.179 11.0129 103.093 11.0129C104.311 11.0129 105.426 12.1736 105.426 13.5511C105.43 13.9771 105.337 14.3983 105.156 14.7818L95.9929 34.2764C95.418 35.542 94.4703 36.0035 93.5567 36.0035C92.342 36.0035 91.2266 34.8393 91.2266 33.4653Z"
      fill="black" />
    <path
      d="M114.552 10.8346C119.15 10.8346 121.621 14.3623 121.621 17.9214C121.663 18.5529 121.47 19.1774 121.08 19.6694C120.639 20.1974 119.93 20.3372 118.948 20.3372H111.441C111.917 22.0293 113.303 22.9803 115.547 22.9803C116.172 22.9818 116.796 22.9114 117.405 22.7705C117.86 22.6504 118.325 22.5789 118.794 22.5573C119.053 22.558 119.31 22.612 119.548 22.7161C119.787 22.8201 120.002 22.972 120.182 23.1628C120.361 23.3536 120.502 23.5794 120.594 23.8267C120.687 24.0741 120.73 24.3379 120.721 24.6025C120.723 25.0609 120.588 25.509 120.334 25.8869C120.081 26.2649 119.72 26.5547 119.301 26.7177C117.937 27.2266 116.493 27.4778 115.041 27.4589C110.206 27.4589 106.487 24.2179 106.487 19.1765C106.473 14.2888 109.819 10.8346 114.552 10.8346ZM117.326 17.355C117.224 15.8411 116.276 14.6769 114.452 14.6769C112.861 14.6769 111.746 15.5929 111.373 17.355H117.326Z"
      fill="black" />
    <path
      d="M123.407 19.0821C123.407 14.1874 127.126 10.8346 131.656 10.8346C136.186 10.8346 139.909 14.1839 139.909 19.0821C139.909 23.9802 136.224 27.4729 131.656 27.4729C127.088 27.4729 123.407 24.0187 123.407 19.0821ZM131.656 23.0327C133.281 23.0327 134.835 21.6587 134.835 19.0821C134.835 16.5054 133.281 15.2783 131.656 15.2783C130.031 15.2783 128.481 16.5474 128.481 19.0821C128.481 21.6168 130.034 23.0327 131.656 23.0327Z"
      fill="black" />
    <path
      d="M4.80748 7.33844C5.30644 7.33844 5.71092 6.9252 5.71092 6.41545C5.71092 5.9057 5.30644 5.49246 4.80748 5.49246C4.30853 5.49246 3.90405 5.9057 3.90405 6.41545C3.90405 6.9252 4.30853 7.33844 4.80748 7.33844Z"
      fill="#43434F" />
    <path
      d="M8.5233 7.33844C9.02226 7.33844 9.42673 6.9252 9.42673 6.41545C9.42673 5.9057 9.02226 5.49246 8.5233 5.49246C8.02435 5.49246 7.61987 5.9057 7.61987 6.41545C7.61987 6.9252 8.02435 7.33844 8.5233 7.33844Z"
      fill="#43434F" />
  </g>
  <defs>
    <clipPath id="clip0_840_4000">
      <rect width="139.909" height="36" fill="white" />
    </clipPath>
  </defs>
</svg>