<?xml version="1.0" encoding="UTF-8"?>
<svg id="_레이어_2" data-name="레이어 2" xmlns="http://www.w3.org/2000/svg" xmlns:xlink="http://www.w3.org/1999/xlink"
  viewBox="0 0 199.33 238.96">
  <defs>
    <style>
      .cls-1 {
        fill: none;
      }

      .cls-2 {
        clip-path: url(#clippath);
      }

      .cls-3 {
        fill: #e60012;
      }

      .cls-4 {
        fill: #fff;
      }

      .cls-5 {
        fill: #fda100;
      }

      .cls-6 {
        fill: #9fa0a0;
      }

      .cls-7 {
        fill: #bf7600;
      }

      .cls-8 {
        fill: #231815;
      }

      .cls-9 {
        fill: #3e3a39;
      }
    </style>
    <clipPath id="clippath">
      <path class="cls-1" d="M94.58,124.29c0,4.98,4.04,9.01,9.01,9.01s9.01-4.04,9.01-9.01h-18.03Z" />
    </clipPath>
  </defs>
  <g id="Layer_1" data-name="Layer 1">
    <g>
      <path class="cls-9"
        d="M42.28,237c11.02,.53,41.96,2.21,71.56,1.93,28.6-.27,55.9-2.49,64.98-3.48,18.48-2,9.57-2.91,5.58-3.1s-72.19-.78-90.81-.65-56.9,.19-64.75,2.52,13.43,2.78,13.43,2.78Z" />
      <path class="cls-5"
        d="M56,84.85H121.67c34.03,0,61.67,27.63,61.67,61.67h0c0,34.03-27.63,61.67-61.67,61.67h-54.33C30.17,208.18,0,178.01,0,140.85H0C0,109.94,25.09,84.85,56,84.85Z" />
      <g>
        <circle class="cls-8" cx="95.69" cy="113.18" r="3.89" />
        <circle class="cls-8" cx="108.36" cy="113.18" r="3.89" />
      </g>
      <path class="cls-8"
        d="M87.86,124.29c-1.79,0-3.13,1.64-2.78,3.4,1.58,7.92,8.57,13.89,16.96,13.89s15.26-5.87,16.92-13.69c.39-1.85-1.05-3.6-2.94-3.6h-28.16Z" />
      <g class="cls-2">
        <path class="cls-4" d="M94.58,124.29c0,4.98,4.04,9.01,9.01,9.01s9.01-4.04,9.01-9.01h-18.03Z" />
        <path class="cls-6"
          d="M101.19,123.9c0,.08,1.78,5.63,2.98,5.92,.32,.07,.64,0,.55-.16-.96-1.67-1.46-3.55-1.64-5.64l-1.89-.11Z" />
      </g>
      <rect class="cls-5" x="20.58" y="51.3" width="44.44" height="82" rx="22.22" ry="22.22" />
      <rect class="cls-5" x="150.22" y="141.85" width="44.44" height="53.78" rx="22.22" ry="22.22"
        transform="translate(3.7 341.18) rotate(-90)" />
      <rect class="cls-5" x="62.81" y="181.29" width="44.44" height="53.78" rx="22.22" ry="22.22"
        transform="translate(170.06 416.36) rotate(-180)" />
      <rect class="cls-5" x="109.56" y="181.29" width="44.44" height="53.78" rx="22.22" ry="22.22"
        transform="translate(325.16 360.85) rotate(160.62)" />
      <path class="cls-7"
        d="M81.81,207.69c.12-.24,.69-.3,.91-.27,6.83,.76,13.95,.66,20.68,.6l11.22-.43,8.48-.57s1.39-.16,1.58-.18c.93-.13-.61,.7-1.5,1-2.8,.93-5.71,1.51-8.61,1.94-3.83,.56-7.68,.79-11.53,.81-3.85,.02-7.69-.23-11.51-.67-2.92-.34-5.83-.8-8.71-1.49-.89-.21-1.16-.44-1.02-.72Z" />
      <g>
        <path class="cls-9"
          d="M70.87,20.82c-4.78,6.35-24.41,32.88-33.18,52.4-.38,.85-.1,1.84,.67,2.35l2.56,1.69c.91,.6,2.14,.31,2.67-.64l30.41-53.74c.49-.86,.22-1.95-.6-2.5h0c-.83-.55-1.94-.36-2.54,.43Z" />
        <path class="cls-3"
          d="M70.99,23.53L24.29,0l30.13,46.15s-.58-9.35,4.51-15.73c5.09-6.38,12.06-6.89,12.06-6.89Z" />
      </g>
    </g>
  </g>
</svg>