<svg width="39" height="32" viewBox="0 0 39 32" fill="none" xmlns="http://www.w3.org/2000/svg">
  <path
    d="M0 10.8148C0 4.84196 4.84196 0 10.8148 0C16.7877 0 21.6296 4.84196 21.6296 10.8148V28.1212C21.6296 30.2634 19.893 32 17.7508 32H3.87879C1.73659 32 0 30.2634 0 28.1212V10.8148Z"
    fill="#04CBD0" />
  <circle cx="9.18519" cy="7.40741" r="1.18519" fill="black" />
  <circle cx="4.44446" cy="7.40741" r="1.18519" fill="black" />
  <path
    d="M8.59257 13.7037C7.64503 13.7037 6.8637 12.9921 6.75392 12.0741H10.4312C10.3214 12.9921 9.54012 13.7037 8.59257 13.7037Z"
    stroke="black" stroke-width="4" />
  <circle cx="28.5" cy="21.5" r="10.5" fill="#FB5002" style="mix-blend-mode:multiply" />
  <circle cx="24.079" cy="21.5" r="1.38158" fill="black" />
  <circle cx="29.0526" cy="21.5" r="1.38158" fill="black" />
  <ellipse cx="32.5188" cy="26.888" rx="2.48684" ry="1.51974" transform="rotate(-30 32.5188 26.888)" fill="black" />
</svg>