<svg width="45" height="24" viewBox="0 0 45 24" fill="none" xmlns="http://www.w3.org/2000/svg">
<path d="M2.91728 4.43231C3.45634 1.95263 5.65082 0.18396 8.18842 0.18396H20.7799C24.2207 0.18396 26.7819 3.36187 26.051 6.72411L23.259 19.5676C22.7199 22.0472 20.5254 23.8159 17.9878 23.8159H5.39636C1.95559 23.8159 -0.605695 20.638 0.125227 17.2758L2.91728 4.43231Z" fill="#8366FF"/>
<path d="M21.4118 19.5674C21.9508 22.0471 24.1453 23.8158 26.6829 23.8158H39.2744C42.7152 23.8158 45.2764 20.6379 44.5455 17.2756L41.7535 4.43219C41.2144 1.95252 39.0199 0.183846 36.4823 0.183846H23.8909C20.4501 0.183846 17.8888 3.36175 18.6197 6.72399L21.4118 19.5674Z" fill="#FDAA02" style="mix-blend-mode:multiply"/>
<path d="M16.6842 9.17464C16.6842 10.0258 15.9942 10.7159 15.143 10.7159C14.2918 10.7159 13.6018 10.0258 13.6018 9.17464C13.6018 8.32345 14.2918 7.63342 15.143 7.63342C15.9942 7.63342 16.6842 8.32345 16.6842 9.17464Z" fill="black"/>
<path fill-rule="evenodd" clip-rule="evenodd" d="M15.143 9.68837C15.4268 9.68837 15.6568 9.45837 15.6568 9.17464C15.6568 8.89091 15.4268 8.6609 15.143 8.6609C14.8593 8.6609 14.6293 8.89091 14.6293 9.17464C14.6293 9.45837 14.8593 9.68837 15.143 9.68837ZM15.143 10.7159C15.9942 10.7159 16.6842 10.0258 16.6842 9.17464C16.6842 8.32345 15.9942 7.63342 15.143 7.63342C14.2918 7.63342 13.6018 8.32345 13.6018 9.17464C13.6018 10.0258 14.2918 10.7159 15.143 10.7159Z" fill="black"/>
<path fill-rule="evenodd" clip-rule="evenodd" d="M8.72132 8.91748C8.72132 9.34308 9.06634 9.68809 9.49193 9.68809C9.91753 9.68809 10.2625 9.34308 10.2625 8.91748H11.29C11.29 9.91053 10.485 10.7156 9.49193 10.7156C8.49888 10.7156 7.69385 9.91053 7.69385 8.91748H8.72132Z" fill="black"/>
<path fill-rule="evenodd" clip-rule="evenodd" d="M18.2497 12.0045C18.8147 12.3016 19.0318 13.0006 18.7346 13.5656C18.3403 14.3154 17.6951 14.8109 17.145 15.1215C16.5884 15.4357 16.0216 15.6217 15.6305 15.7013C15.005 15.8288 14.3946 15.425 14.2671 14.7994C14.1397 14.1739 14.5435 13.5635 15.1691 13.436C15.3384 13.4016 15.6753 13.2964 16.0084 13.1083C16.348 12.9166 16.5786 12.6986 16.6886 12.4894C16.9858 11.9244 17.6847 11.7073 18.2497 12.0045Z" fill="black"/>
<path d="M34.1514 8.66078C34.1514 9.22824 33.6914 9.68825 33.1239 9.68825C32.5565 9.68825 32.0964 9.22824 32.0964 8.66078C32.0964 8.09332 32.5565 7.6333 33.1239 7.6333C33.6914 7.6333 34.1514 8.09332 34.1514 8.66078Z" fill="black"/>
<path fill-rule="evenodd" clip-rule="evenodd" d="M33.1239 9.68825C33.6914 9.68825 34.1514 9.22824 34.1514 8.66078C34.1514 8.09332 33.6914 7.6333 33.1239 7.6333C32.5565 7.6333 32.0964 8.09332 32.0964 8.66078C32.0964 9.22824 32.5565 9.68825 33.1239 9.68825Z" fill="black"/>
<path d="M38.1328 12.1925C38.1328 13.292 37.2416 14.1833 36.1421 14.1833C35.0426 14.1833 34.1514 13.292 34.1514 12.1925C34.1514 11.0931 35.0426 10.2018 36.1421 10.2018C37.2416 10.2018 38.1328 11.0931 38.1328 12.1925Z" fill="black"/>
<path fill-rule="evenodd" clip-rule="evenodd" d="M36.1421 13.1558C36.6741 13.1558 37.1054 12.7245 37.1054 12.1925C37.1054 11.6605 36.6741 11.2293 36.1421 11.2293C35.6101 11.2293 35.1788 11.6605 35.1788 12.1925C35.1788 12.7245 35.6101 13.1558 36.1421 13.1558ZM36.1421 14.1833C37.2416 14.1833 38.1328 13.292 38.1328 12.1925C38.1328 11.0931 37.2416 10.2018 36.1421 10.2018C35.0426 10.2018 34.1514 11.0931 34.1514 12.1925C34.1514 13.292 35.0426 14.1833 36.1421 14.1833Z" fill="black"/>
<path d="M29.5277 8.66078C29.5277 9.22824 29.0677 9.68825 28.5003 9.68825C27.9328 9.68825 27.4728 9.22824 27.4728 8.66078C27.4728 8.09332 27.9328 7.6333 28.5003 7.6333C29.0677 7.6333 29.5277 8.09332 29.5277 8.66078Z" fill="black"/>
<path fill-rule="evenodd" clip-rule="evenodd" d="M28.5003 9.68825C29.0677 9.68825 29.5277 9.22824 29.5277 8.66078C29.5277 8.09332 29.0677 7.6333 28.5003 7.6333C27.9328 7.6333 27.4728 8.09332 27.4728 8.66078C27.4728 9.22824 27.9328 9.68825 28.5003 9.68825Z" fill="black"/>
</svg>
